<mxfile host="app.diagrams.net" modified="2024-04-01T17:42:57.438Z" agent="Mozilla/5.0 (Windows NT 10.0; Win64; x64) AppleWebKit/537.36 (KHTML, like Gecko) Chrome/123.0.0.0 Safari/537.36 Edg/123.0.0.0" etag="ESM0po1K1BFvB_a6OKQ-" version="24.0.7" type="device">
  <diagram name="Страница — 1" id="crG8iguyDtiMBC2zopK3">
    <mxGraphModel dx="792" dy="1192" grid="1" gridSize="10" guides="1" tooltips="1" connect="1" arrows="1" fold="1" page="1" pageScale="1" pageWidth="827" pageHeight="1169" math="0" shadow="0">
      <root>
        <mxCell id="0" />
        <mxCell id="1" parent="0" />
        <mxCell id="4Wynki-R0ndvqOsv46pi-3" value="" style="edgeStyle=orthogonalEdgeStyle;rounded=0;orthogonalLoop=1;jettySize=auto;html=1;" parent="1" source="4Wynki-R0ndvqOsv46pi-1" target="4Wynki-R0ndvqOsv46pi-2" edge="1">
          <mxGeometry relative="1" as="geometry" />
        </mxCell>
        <mxCell id="4Wynki-R0ndvqOsv46pi-1" value="start" style="rounded=1;whiteSpace=wrap;html=1;" parent="1" vertex="1">
          <mxGeometry x="252" y="50" width="120" height="60" as="geometry" />
        </mxCell>
        <mxCell id="4Wynki-R0ndvqOsv46pi-5" value="" style="edgeStyle=orthogonalEdgeStyle;rounded=0;orthogonalLoop=1;jettySize=auto;html=1;" parent="1" source="4Wynki-R0ndvqOsv46pi-2" target="4Wynki-R0ndvqOsv46pi-4" edge="1">
          <mxGeometry relative="1" as="geometry" />
        </mxCell>
        <mxCell id="4Wynki-R0ndvqOsv46pi-2" value="string array" style="shape=parallelogram;perimeter=parallelogramPerimeter;whiteSpace=wrap;html=1;fixedSize=1;rounded=1;" parent="1" vertex="1">
          <mxGeometry x="252" y="120" width="120" height="60" as="geometry" />
        </mxCell>
        <mxCell id="4Wynki-R0ndvqOsv46pi-7" value="" style="edgeStyle=orthogonalEdgeStyle;rounded=0;orthogonalLoop=1;jettySize=auto;html=1;" parent="1" source="4Wynki-R0ndvqOsv46pi-4" edge="1">
          <mxGeometry relative="1" as="geometry">
            <mxPoint x="412" y="345" as="targetPoint" />
          </mxGeometry>
        </mxCell>
        <mxCell id="4Wynki-R0ndvqOsv46pi-11" value="" style="edgeStyle=orthogonalEdgeStyle;rounded=0;orthogonalLoop=1;jettySize=auto;html=1;" parent="1" source="4Wynki-R0ndvqOsv46pi-4" target="4Wynki-R0ndvqOsv46pi-24" edge="1">
          <mxGeometry relative="1" as="geometry">
            <mxPoint x="312" y="475" as="targetPoint" />
          </mxGeometry>
        </mxCell>
        <mxCell id="4Wynki-R0ndvqOsv46pi-4" value="i&amp;lt;array.length" style="rhombus;whiteSpace=wrap;html=1;rounded=1;" parent="1" vertex="1">
          <mxGeometry x="258" y="292.5" width="108" height="105" as="geometry" />
        </mxCell>
        <mxCell id="4Wynki-R0ndvqOsv46pi-55" style="edgeStyle=orthogonalEdgeStyle;rounded=0;orthogonalLoop=1;jettySize=auto;html=1;entryX=1;entryY=0.5;entryDx=0;entryDy=0;" parent="1" target="kroDBl-xlzWbaWM1DGA_-5" edge="1">
          <mxGeometry relative="1" as="geometry">
            <mxPoint x="372" y="505" as="sourcePoint" />
            <mxPoint x="494" y="690" as="targetPoint" />
            <Array as="points">
              <mxPoint x="500" y="505" />
              <mxPoint x="500" y="810" />
            </Array>
          </mxGeometry>
        </mxCell>
        <mxCell id="4Wynki-R0ndvqOsv46pi-23" style="edgeStyle=orthogonalEdgeStyle;rounded=0;orthogonalLoop=1;jettySize=auto;html=1;entryX=0;entryY=0.5;entryDx=0;entryDy=0;" parent="1" source="4Wynki-R0ndvqOsv46pi-16" target="4Wynki-R0ndvqOsv46pi-4" edge="1">
          <mxGeometry relative="1" as="geometry">
            <Array as="points">
              <mxPoint x="312" y="810" />
              <mxPoint x="180" y="810" />
              <mxPoint x="180" y="345" />
            </Array>
          </mxGeometry>
        </mxCell>
        <mxCell id="4Wynki-R0ndvqOsv46pi-16" value="counter=counter+1" style="whiteSpace=wrap;html=1;rounded=0;" parent="1" vertex="1">
          <mxGeometry x="219.5" y="640" width="185" height="60" as="geometry" />
        </mxCell>
        <mxCell id="4Wynki-R0ndvqOsv46pi-38" style="edgeStyle=orthogonalEdgeStyle;rounded=0;orthogonalLoop=1;jettySize=auto;html=1;" parent="1" source="4Wynki-R0ndvqOsv46pi-24" target="4Wynki-R0ndvqOsv46pi-16" edge="1">
          <mxGeometry relative="1" as="geometry" />
        </mxCell>
        <mxCell id="4Wynki-R0ndvqOsv46pi-24" value="array[i].length&amp;lt;=3" style="whiteSpace=wrap;html=1;rounded=0;" parent="1" vertex="1">
          <mxGeometry x="252" y="480" width="120" height="60" as="geometry" />
        </mxCell>
        <mxCell id="4Wynki-R0ndvqOsv46pi-35" value="No" style="text;html=1;align=center;verticalAlign=middle;resizable=0;points=[];autosize=1;strokeColor=none;fillColor=none;" parent="1" vertex="1">
          <mxGeometry x="380" y="470" width="40" height="30" as="geometry" />
        </mxCell>
        <mxCell id="4Wynki-R0ndvqOsv46pi-52" value="Yes" style="text;html=1;align=center;verticalAlign=middle;resizable=0;points=[];autosize=1;strokeColor=none;fillColor=none;" parent="1" vertex="1">
          <mxGeometry x="260" y="560" width="40" height="30" as="geometry" />
        </mxCell>
        <mxCell id="kroDBl-xlzWbaWM1DGA_-2" value="i=0&lt;div&gt;counter=0&lt;/div&gt;" style="rounded=0;whiteSpace=wrap;html=1;" vertex="1" parent="1">
          <mxGeometry x="252" y="210" width="120" height="60" as="geometry" />
        </mxCell>
        <mxCell id="kroDBl-xlzWbaWM1DGA_-3" value="No" style="text;html=1;align=center;verticalAlign=middle;resizable=0;points=[];autosize=1;strokeColor=none;fillColor=none;" vertex="1" parent="1">
          <mxGeometry x="370" y="308" width="40" height="30" as="geometry" />
        </mxCell>
        <mxCell id="kroDBl-xlzWbaWM1DGA_-4" value="Yes" style="text;html=1;align=center;verticalAlign=middle;resizable=0;points=[];autosize=1;strokeColor=none;fillColor=none;" vertex="1" parent="1">
          <mxGeometry x="320" y="408" width="40" height="30" as="geometry" />
        </mxCell>
        <mxCell id="kroDBl-xlzWbaWM1DGA_-6" value="" style="endArrow=none;html=1;rounded=0;" edge="1" parent="1" target="kroDBl-xlzWbaWM1DGA_-5">
          <mxGeometry width="50" height="50" relative="1" as="geometry">
            <mxPoint x="310" y="810" as="sourcePoint" />
            <mxPoint x="500" y="810" as="targetPoint" />
          </mxGeometry>
        </mxCell>
        <mxCell id="kroDBl-xlzWbaWM1DGA_-5" value="i=i+1" style="rounded=0;whiteSpace=wrap;html=1;" vertex="1" parent="1">
          <mxGeometry x="252" y="780" width="120" height="60" as="geometry" />
        </mxCell>
        <mxCell id="kroDBl-xlzWbaWM1DGA_-9" value="" style="edgeStyle=orthogonalEdgeStyle;rounded=0;orthogonalLoop=1;jettySize=auto;html=1;" edge="1" parent="1" source="kroDBl-xlzWbaWM1DGA_-7" target="kroDBl-xlzWbaWM1DGA_-8">
          <mxGeometry relative="1" as="geometry" />
        </mxCell>
        <mxCell id="kroDBl-xlzWbaWM1DGA_-7" value="Create resultArray[couter]&lt;div&gt;j=0&lt;/div&gt;&lt;div&gt;i=0&lt;/div&gt;" style="rounded=0;whiteSpace=wrap;html=1;" vertex="1" parent="1">
          <mxGeometry x="410" y="315" width="120" height="60" as="geometry" />
        </mxCell>
        <mxCell id="kroDBl-xlzWbaWM1DGA_-11" value="" style="edgeStyle=orthogonalEdgeStyle;rounded=0;orthogonalLoop=1;jettySize=auto;html=1;" edge="1" parent="1" source="kroDBl-xlzWbaWM1DGA_-8" target="kroDBl-xlzWbaWM1DGA_-10">
          <mxGeometry relative="1" as="geometry" />
        </mxCell>
        <mxCell id="kroDBl-xlzWbaWM1DGA_-24" value="" style="edgeStyle=orthogonalEdgeStyle;rounded=0;orthogonalLoop=1;jettySize=auto;html=1;" edge="1" parent="1" source="kroDBl-xlzWbaWM1DGA_-8" target="kroDBl-xlzWbaWM1DGA_-23">
          <mxGeometry relative="1" as="geometry" />
        </mxCell>
        <mxCell id="kroDBl-xlzWbaWM1DGA_-8" value="i&amp;lt;array.length" style="rhombus;whiteSpace=wrap;html=1;rounded=1;" vertex="1" parent="1">
          <mxGeometry x="580" y="292.5" width="108" height="105" as="geometry" />
        </mxCell>
        <mxCell id="kroDBl-xlzWbaWM1DGA_-13" value="" style="edgeStyle=orthogonalEdgeStyle;rounded=0;orthogonalLoop=1;jettySize=auto;html=1;" edge="1" parent="1" source="kroDBl-xlzWbaWM1DGA_-10">
          <mxGeometry relative="1" as="geometry">
            <mxPoint x="634" y="662.5" as="targetPoint" />
          </mxGeometry>
        </mxCell>
        <mxCell id="kroDBl-xlzWbaWM1DGA_-10" value="array[i].length&amp;lt;=3" style="rhombus;whiteSpace=wrap;html=1;rounded=1;" vertex="1" parent="1">
          <mxGeometry x="580" y="477.5" width="108" height="105" as="geometry" />
        </mxCell>
        <mxCell id="kroDBl-xlzWbaWM1DGA_-14" value="resultarray[j]=array[i]&lt;div&gt;j=j+1&lt;/div&gt;" style="rounded=0;whiteSpace=wrap;html=1;" vertex="1" parent="1">
          <mxGeometry x="574" y="660" width="120" height="60" as="geometry" />
        </mxCell>
        <mxCell id="kroDBl-xlzWbaWM1DGA_-15" value="Yes" style="text;html=1;align=center;verticalAlign=middle;resizable=0;points=[];autosize=1;strokeColor=none;fillColor=none;" vertex="1" parent="1">
          <mxGeometry x="590" y="418" width="40" height="30" as="geometry" />
        </mxCell>
        <mxCell id="kroDBl-xlzWbaWM1DGA_-16" value="Yes" style="text;html=1;align=center;verticalAlign=middle;resizable=0;points=[];autosize=1;strokeColor=none;fillColor=none;" vertex="1" parent="1">
          <mxGeometry x="590" y="598" width="40" height="30" as="geometry" />
        </mxCell>
        <mxCell id="kroDBl-xlzWbaWM1DGA_-20" value="" style="edgeStyle=orthogonalEdgeStyle;rounded=0;orthogonalLoop=1;jettySize=auto;html=1;" edge="1" parent="1" source="kroDBl-xlzWbaWM1DGA_-10" target="kroDBl-xlzWbaWM1DGA_-19">
          <mxGeometry relative="1" as="geometry">
            <mxPoint x="688" y="530" as="sourcePoint" />
            <mxPoint x="762" y="530" as="targetPoint" />
            <Array as="points">
              <mxPoint x="770" y="530" />
              <mxPoint x="770" y="810" />
            </Array>
          </mxGeometry>
        </mxCell>
        <mxCell id="kroDBl-xlzWbaWM1DGA_-22" style="edgeStyle=orthogonalEdgeStyle;rounded=0;orthogonalLoop=1;jettySize=auto;html=1;entryX=0;entryY=1;entryDx=0;entryDy=0;" edge="1" parent="1">
          <mxGeometry relative="1" as="geometry">
            <mxPoint x="574" y="813.75" as="sourcePoint" />
            <mxPoint x="607" y="375" as="targetPoint" />
            <Array as="points">
              <mxPoint x="540" y="814" />
              <mxPoint x="540" y="375" />
            </Array>
          </mxGeometry>
        </mxCell>
        <mxCell id="kroDBl-xlzWbaWM1DGA_-19" value="i=i+1" style="rounded=0;whiteSpace=wrap;html=1;" vertex="1" parent="1">
          <mxGeometry x="574" y="780" width="120" height="60" as="geometry" />
        </mxCell>
        <mxCell id="kroDBl-xlzWbaWM1DGA_-21" value="No" style="text;html=1;align=center;verticalAlign=middle;resizable=0;points=[];autosize=1;strokeColor=none;fillColor=none;" vertex="1" parent="1">
          <mxGeometry x="670" y="478" width="40" height="30" as="geometry" />
        </mxCell>
        <mxCell id="kroDBl-xlzWbaWM1DGA_-26" value="" style="edgeStyle=orthogonalEdgeStyle;rounded=0;orthogonalLoop=1;jettySize=auto;html=1;" edge="1" parent="1" source="kroDBl-xlzWbaWM1DGA_-23" target="kroDBl-xlzWbaWM1DGA_-25">
          <mxGeometry relative="1" as="geometry" />
        </mxCell>
        <mxCell id="kroDBl-xlzWbaWM1DGA_-23" value="resultArray" style="shape=parallelogram;perimeter=parallelogramPerimeter;whiteSpace=wrap;html=1;fixedSize=1;rounded=1;" vertex="1" parent="1">
          <mxGeometry x="762" y="315" width="120" height="60" as="geometry" />
        </mxCell>
        <mxCell id="kroDBl-xlzWbaWM1DGA_-25" value="End" style="whiteSpace=wrap;html=1;rounded=1;" vertex="1" parent="1">
          <mxGeometry x="762" y="455" width="120" height="60" as="geometry" />
        </mxCell>
      </root>
    </mxGraphModel>
  </diagram>
</mxfile>
